<svg height="256" viewBox="0 0 67.733332 67.733335" width="256" ><g fill="#fff"><path d="m6.289239 6.63665h55.154854v8.978697h-55.154854z"/><path d="m6.289239 21.79708h55.154854v8.978697h-55.154854z"/><path d="m6.289239 36.95752h55.154854v8.978697h-55.154854z"/><path d="m6.289239 52.11798h55.154854v8.978697h-55.154854z"/></g><path d="m30.2878 39.083748-3.771525-3.778044 6.945512-6.960507 6.083013-6.098009-6.268225-6.127791-7.130727-6.9902753 3.777838-3.7598454 3.777852-3.7598479 7.143662 6.9742347 6.281176 6.1117289 6.293599-6.2962076 7.15611-7.1587175 3.776118 3.7761186 3.776105 3.7761039-7.12976 7.1323666-6.267253 6.269861 6.248886 6.143543 7.111373 7.006065-3.776105 3.776101-3.776104 3.776121-7.111377-7.006034-6.248888-6.143529-6.128616 6.126007-6.991135 6.988528z" fill="#a00"/></svg>