<svg height="256" viewBox="0 0 67.733331 67.733331" width="256"><path d="m24.681947 30.959136s-3.011139-2.666087-4.624372-3.862384c-1.581517-1.172782-3.264768-2.203676-4.939814-3.238489-3.194751-1.97366-6.6813438-3.482471-9.7400474-5.661028-.9220977-.656767-1.825848-1.366364-2.5726794-2.217164-.5610727-.639186-1.0816084-1.344189-1.4011529-2.132387-.2619559-.646134-.324603-1.360544-.3929566-2.054397-.06922895-.702839-.19282933-1.434989-.01580103-2.118669.22116883-.8538714.76878233-1.601004 1.30177693-2.3038005.4200685-.5538861.9017383-1.0796184 1.4716778-1.4776244.9657494-.674403 2.0630225-1.2081774 3.2094157-1.4788517 1.0874855-.2567643 2.2421084-.2489674 3.3504419-.1070456.888348.1137531 1.78264.3463794 2.577184.759677.984875.5123034 1.777184 1.3353672 2.604976 2.0750902 1.105969.9883028 2.115451 2.0800501 3.144823 3.147903 1.132425 1.174761 2.268632 2.34832 3.333805 3.584386 1.909636 2.216013 3.700711 4.532946 5.47276 6.86045 1.488523 1.955106 4.331726 5.964847 4.331726 5.964847s5.016234-2.893702 7.618023-4.15893c3.041103-1.478863 6.161862-2.798631 9.32206-4.002166 2.973201-1.13232 5.991232-2.15904 9.05329-3.022684 2.053851-.579282 4.147999-1.007952 6.236879-1.44436.536873-.112165 1.071824-.246514 1.617515-.301602.230702-.02329.473038-.07705.695523-.01174.183816.05396.42308.135307.478205.318778.06798.226244-.124625.471136-.275376.653021-.172607.208254-.422484.354808-.676199.448577-2.576779.952334-4.891012 1.705998-7.56151 2.585368-3.058793 1.007233-5.875893 2.651896-8.705216 4.189969-2.580615 1.402872-5.129652 2.885142-7.524851 4.58533-2.3172 1.64482-6.589324 5.408733-6.589324 5.408733s3.922738 5.997167 5.850836 9.017163c3.632191 5.689129 7.232297 11.39917 10.770634 17.147141.276019.448389.588046.877899.815849 1.352603.184708.384904.425383.775594.441709 1.20221.007.185089.01125.445851-.151215.534702-.238569.130427-.545176-.100706-.780545-.23682-.374395-.216516-.66151-.562289-.945753-.888258-.376966-.432306-.643313-.950868-.996311-1.402956-4.063725-5.204469-8.4535-10.150945-12.887615-15.043693-2.124495-2.344236-6.56723-6.852139-6.56723-6.852139s-1.842889 1.989007-2.713893 3.027259c-1.110345 1.323553-2.191294 2.67452-3.198836 4.077916-1.450116 2.019845-2.752594 4.142062-4.088871 6.238955-1.682178 2.639681-3.134887 5.429183-4.94495 7.982866-.684135.965193-1.373371 1.944646-2.227912 2.76281-.781355.748096-1.660735 1.411012-2.612366 1.925362-.587389.317479-1.216372.605105-1.8775824.697919-.6291422.088314-1.2794396-.011744-1.9002834-.146555-.7204016-.156442-1.429402-.407509-2.0769712-.759809-.6148871-.334524-1.1694917-.781846-1.6770797-1.263864-.5540361-.526112-1.0653641-1.110089-1.4722006-1.756793-.4171357-.663071-.7676683-1.383747-.9702738-2.140463-.2137458-.79835-.2358217-1.641156-.2416306-2.467605-.00568-.757417-.011595-1.534171.1896805-2.26438.2566472-.931177.7403745-1.79709 1.2716527-2.603752.6805921-1.033355 1.5902082-1.896926 2.4210237-2.813864 1.0405258-1.148397 2.1067089-2.274656 3.208961-3.363954 1.0590551-1.046624 2.1404928-2.072771 3.2683678-3.044847 2.42164-2.087121 4.926801-4.080808 7.501535-5.975848 1.878723-1.382768 5.790431-3.930118 5.790431-3.930118z" fill="#a00"/></svg>