<svg height="256" viewBox="0 0 67.733332 67.733335" width="256" ><path d="m1.1442677 255.96013 6.0001785 4.5739c-.2503328 2.42724-.1045228 5.02275.3030974 7.22224l-5.6166741 5.00804c.9509634 2.97504 2.338628 5.80236 4.1204488 8.39528l7.6354957-1.02992c1.444989 1.626 3.092286 3.07265 4.904339 4.30698l-.421292 7.36536c2.908986 1.50508 6.031173 2.58707 9.265989 3.21112l4.556209-5.97685c1.994771.18381 4.136085.0551 5.947117-.21302l5.019311 5.62872c3.170101-.85598 6.192991-2.15843 8.971724-3.86558l-.988104-7.32676c1.742747-1.38361 3.298639-2.97408 4.630984-4.7339l7.705442.44139c1.558346-2.71435 2.70686-5.63085 3.410527-8.66058l-6.000178-4.57391c.249412-2.42719.104428-5.02292-.303097-7.22224l5.616673-5.00804c-.950964-2.97504-2.338629-5.80236-4.120451-8.39528l-7.635494 1.02992c-1.445041-1.62571-3.092336-3.07208-4.90434-4.30616l.421292-7.36618c-2.908986-1.50508-6.031173-2.58707-9.265988-3.21112l-4.556209 5.97685c-1.994654-.17771-4.136811-.0546-5.947117.21303l-5.01931-5.62873c-3.170101.85598-6.192993 2.15843-8.971726 3.86558l.988103 7.32676c-1.742746 1.38361-3.298637 2.97408-4.630981 4.7339l-7.705443-.44139c-1.5583469 2.71435-2.7068606 5.63085-3.4105263 8.66059zm18.4226303 7.1732c.000001-7.64494 6.402246-13.84237 14.29977-13.8423 7.897523-.00006 14.299767 6.19736 14.299768 13.8423-.000001 7.64494-6.402245 13.84236-14.299768 13.8423-7.897524.00007-14.299769-6.19736-14.29977-13.8423z" transform="translate(0 -229.26666)"/></svg>