<svg height="256" viewBox="0 0 67.733331 67.733331" width="256" ><g transform="matrix(.8660254 -.5 .5 .8660254 -119.73673 -169.375901)"><path d="m33.866666 226.09168a18.520832 18.520832 0 0 0 -18.520833 18.52083 18.520832 18.520832 0 0 0 18.520833 18.52084 18.520832 18.520832 0 0 0 18.520832-18.52084 18.520832 18.520832 0 0 0 -18.520832-18.52083zm0 5.29167a13.229166 13.229166 0 0 1 13.229166 13.22916 13.229166 13.229166 0 0 1 -13.229166 13.22917 13.229166 13.229166 0 0 1 -13.229166-13.22917 13.229166 13.229166 0 0 1 13.229166-13.22916z"/><path d="m30.162498 258.50311h7.408333v24.606249h-7.408333z"/></g></svg>