<svg height="256" viewBox="0 0 67.733332 67.733335" width="256"><path d="m128 26.683594c-55.955459.000113-101.316293 45.360947-101.316406 101.316406.00011 55.95546 45.360945 101.3163 101.316406 101.31641 55.95546-.00011 101.3163-45.36095 101.31641-101.31641-.00011-55.955461-45.36095-101.316296-101.31641-101.316406zm-.81836 35.363281c3.8176 0 6.81656 1.146939 8.99805 3.4375 2.29056 2.181486 3.4375 5.070469 3.4375 8.669922s-1.14694 6.545377-3.4375 8.835937c-2.18149 2.181487-5.18045 3.271485-8.99805 3.271485-3.59945 0-6.49039-1.089998-8.67187-3.271485-2.18149-2.29056-3.27149-5.236484-3.27149-8.835937s1.09-6.488436 3.27149-8.669922c2.18148-2.290561 5.07242-3.4375 8.67187-3.4375zm10.96289 35.375005 1.63477 1.30859c-.32723 2.72686-.59826 5.67278-.81641 8.83594-.21815 3.16315-.38311 6.27013-.49219 9.32421-.10906 2.94501-.21708 5.78096-.32617 8.50782v6.87304 42.70118c0 2.61778.16301 4.74473.49024 6.38086.32722 1.52704 1.03621 2.72701 2.12695 3.5996 1.19982.8726 2.94577 1.47357 5.23633 1.80079 2.29056.32723 5.45253.60021 9.48828.81836l-.32617 6.38085c-3.49038.00001-7.69127-.0549-12.59961-.16406-4.90835-.10913-10.58024-.16406-17.01563-.16406-5.34464 0-10.03456.0549-14.07031.16406-4.03575.10913-7.58069.16407-10.63477.16406l-.32617-5.56445c3.59945-.32721 6.4354-.76321 8.50781-1.30859 2.18149-.65445 3.87245-1.68947 5.07227-3.10742 1.19982-1.41798 1.96184-3.32693 2.28906-5.72657.4363-2.50869.6543-5.83564.6543-9.98047v-42.375c0-3.05408-.16301-5.45402-.49023-7.19921-.32723-1.74519-1.03621-3.10818-2.12696-4.08985-.98167-.98167-2.50766-1.74564-4.58008-2.29101-1.96333-.54537-4.58128-1.09135-7.85351-1.63672l-.49219-5.07227 10.14453-1.96289c3.49038-.76352 7.3083-1.52749 11.45313-2.29101 4.14482-.76352 7.36178-1.47251 9.65234-2.12696 2.39964-.65444 4.20057-1.25345 5.40039-1.79882z" fill="#fff" transform="scale(.26458333)"/></svg>