<svg height="341.33334" viewBox="0 0 341.33334 341.33334" width="341.33334" ><g stroke-width=".64" transform="translate(85.008206 -381.42143)"><path d="m97.175044 384.4849c17.127156 1.69533 27.456386 3.7793 41.279996 8.32843 18.49325 6.08583 37.39347 16.41852 52.8 28.8656 7.72361 6.23998 20.89296 19.60808 26.66697 27.06943 48.94515 63.24844 46.94874 151.84444-4.78206 212.21655-58.50505 68.27795-159.615431 78.53175-230.844911 23.41043-7.46135-5.77401-20.82945-18.94336-27.06943-26.66697-19.17454-23.73353-31.55527-52.30111-36.05756-83.2-1.56661-10.75154-1.57213-34.20012-.0106-44.8 1.37675-9.34524 3.0708-17.30958 5.30911-24.96001 1.6024-5.47692 5.73915-16.92407 6.32925-17.51416.1523-.15231 2.59518 1.93791 5.4286 4.64495 8.66922 8.28253 17.70317 13.37157 29.3183 16.51571 7.28008 1.97067 21.95353 1.9828 29.7278397.0246 41.8309103-10.53655 61.8584053-57.74575 39.9755003-94.23109-3.46597-5.77881-7.10964-10.38468-11.10125-14.03278l-3.39834-3.10589 6.21426-2.30602c18.63873-6.91655 34.688775-9.90797 55.174285-10.28343 6.864-.1258 13.632-.11471 15.04.0246z" fill="#e31d3f"/><path d="m-26.865082 497.37117c-13.30016-1.9661-26.65231-10.05176-34.2132-20.71849-3.75419-5.29634-5.78226-9.50622-7.78891-16.1683-1.46097-4.8504-1.69783-6.79748-1.69783-13.95678 0-7.19325.23383-9.09683 1.72663-14.05617 9.07001-30.13224 40.92872-45.27306 69.8118-33.17798 13.59254 5.69201 24.94829 18.83747 29.23089 33.83781 2.06757 7.24191 2.06757 19.55077 0 26.79269-7.18464 25.16509-31.63299 41.20736-57.06938 37.44722z" fill="#e31d3f"/><g fill="#fff"><path d="m5.076068 471.3276 5.16721-5.6.006-12.96.006-12.96h-9.13334-9.13335l-5.73331 5.76-5.73331 5.76h8.78665 8.78666v4.61302c0 4.45656-.0804 4.69533-2.36989 7.04l-2.36989 2.42698h-12.47964-12.47965l-2.11046-2.04555-2.11047-2.04554v-15.36747-15.36747l2.36989-2.42699 2.36989-2.42698h15.40424 15.40424l5.41174-5.44 5.41174-5.44h-23.9725-23.9725l-5.29337 5.26587-5.29337 5.26587v20.48076 20.48076l5.26587 5.29337 5.26587 5.29337h18.6811 18.68109z"/><path d="m29.819389 626.41698c8.4611-19.63373 56.067609-128.93265 56.230429-129.09842.0748-.0761 1.60371 3.23587 3.39762 7.36 15.707622 36.11107 24.514832 56.50918 24.514832 56.77802 0 .17622-6.98625.3204-15.525002.3204h-15.525l-15.350002 15.36-15.349997 15.36h37.802609 37.802602l10.48182 24 10.48181 24h20.07371c19.65978 0 20.06548-.0259 19.67477-1.25695-.38063-1.19924-30.80992-70.36019-63.50777-144.34305l-15.27431-34.56h-23.499652-23.499662l-39.407927 88.63999c-21.6743603 48.75201-39.66558 89.29199-39.98049 90.08886l-.57256 1.44885 20.5511697-.16885 20.5511603-.16885z"/></g></g></svg>