<svg height="256" viewBox="0 0 67.733332 67.733335" width="256" ><path d="m33.749062 235.27504c-1.798825.0405-3.459133 1.01474-4.367638 2.58782l-14.011196 24.26851-14.0117221 24.26693c-1.99283513 3.45306.4989017 7.76904 4.485767 7.76975h28.0229181 28.021868c3.98687-.00069 6.478605-4.31669 4.485767-7.76975l-14.011721-24.26693-14.010671-24.26851c-.882023-1.52725-2.48046-2.50069-4.242158-2.58363-.12097-.006-.241292-.007-.361214-.005zm.117605 16.65625c.672025 0 1.226446.0336 1.663262.10077.436816.0504.781229.1344 1.033239.252.268809.10077.453617.23522.55442.40322.117605.1512.176407.33601.176407.55442l-.655224 22.88246c-.0168.168-.0672.3192-.151206.45361-.084.1344-.23521.25201-.453618.35281-.201606.084-.487217.15121-.856831.20161-.352813.0504-.78963.0756-1.310449.0756-.53762 0-.982836-.0253-1.33565-.0756-.352813-.0504-.638424-.11761-.856832-.20161-.201608-.10077-.344413-.21841-.428416-.35281-.084-.13441-.134404-.28561-.151206-.45361l-.655224-22.88246c0-.21841.05041-.41162.151205-.57962.100805-.16801.277211-.30242.529221-.40322.268809-.1176.621623-.20161 1.058439-.25201.453617-.0504 1.016438-.0756 1.688463-.0756zm0 27.82183c.688825 0 1.260047.0673 1.713664.20161.453616.1176.81483.32761 1.08364.63001.285611.28562.478817.67204.579622 1.15925.117604.47042.176406 1.05844.176406 1.76407 0 .68882-.0588 1.26844-.176406 1.73887-.100805.47041-.294011.84843-.579622 1.13403-.26881.28561-.630024.48722-1.08364.60483-.453617.13441-1.024839.20161-1.713664.20161s-1.268447-.0671-1.738865-.20161c-.453617-.11761-.81483-.31922-1.08364-.60483-.26881-.2856-.462018-.66362-.579621-1.13403-.100805-.47043-.151206-1.05005-.151206-1.73887 0-.70563.0504-1.29365.151206-1.76407.117603-.48721.310811-.87363.579621-1.15925.26881-.3024.630023-.51241 1.08364-.63001.470418-.1344 1.05004-.20161 1.738865-.20161z" fill="#ffffb2" transform="translate(0 -229.26666)"/></svg>