<?xml version="1.0" encoding="UTF-8" standalone="no"?>
<svg
   height="256"
   viewBox="0 0 67.733331 67.733331"
   width="256"
   version="1.1"
   id="svg2"
   sodipodi:docname="magnifying_glass_icon_dark_mode.svg"
   inkscape:version="1.3-alpha (9cd57a788, 2023-05-01)"
   xmlns:inkscape="http://www.inkscape.org/namespaces/inkscape"
   xmlns:sodipodi="http://sodipodi.sourceforge.net/DTD/sodipodi-0.dtd"
   xmlns="http://www.w3.org/2000/svg"
   xmlns:svg="http://www.w3.org/2000/svg">
  <defs
     id="defs2" />
  <sodipodi:namedview
     id="namedview2"
     pagecolor="#505050"
     bordercolor="#eeeeee"
     borderopacity="1"
     inkscape:showpageshadow="0"
     inkscape:pageopacity="0"
     inkscape:pagecheckerboard="0"
     inkscape:deskcolor="#505050"
     inkscape:zoom="4.0273438"
     inkscape:cx="128"
     inkscape:cy="128"
     inkscape:window-width="1649"
     inkscape:window-height="1266"
     inkscape:window-x="4010"
     inkscape:window-y="56"
     inkscape:window-maximized="0"
     inkscape:current-layer="svg2" />
  <g
     transform="matrix(.8660254 -.5 .5 .8660254 -119.73673 -169.375901)"
     id="g2"
     style="stroke:#f0f0f0;stroke-opacity:1;fill:#f0f0f0;fill-opacity:1">
    <path
       d="m33.866666 226.09168a18.520832 18.520832 0 0 0 -18.520833 18.52083 18.520832 18.520832 0 0 0 18.520833 18.52084 18.520832 18.520832 0 0 0 18.520832-18.52084 18.520832 18.520832 0 0 0 -18.520832-18.52083zm0 5.29167a13.229166 13.229166 0 0 1 13.229166 13.22916 13.229166 13.229166 0 0 1 -13.229166 13.22917 13.229166 13.229166 0 0 1 -13.229166-13.22917 13.229166 13.229166 0 0 1 13.229166-13.22916z"
       id="path1"
       style="stroke:#f0f0f0;stroke-opacity:1;fill:#f0f0f0;fill-opacity:1" />
    <path
       d="m30.162498 258.50311h7.408333v24.606249h-7.408333z"
       id="path2"
       style="stroke:#f0f0f0;stroke-opacity:1;fill:#f0f0f0;fill-opacity:1" />
  </g>
</svg>
