<?xml version="1.0" encoding="UTF-8" standalone="no"?>
<!-- Created with Inkscape (http://www.inkscape.org/) -->

<svg
   xmlns:dc="http://purl.org/dc/elements/1.1/"
   xmlns:cc="http://creativecommons.org/ns#"
   xmlns:rdf="http://www.w3.org/1999/02/22-rdf-syntax-ns#"
   xmlns:svg="http://www.w3.org/2000/svg"
   xmlns="http://www.w3.org/2000/svg"
   xmlns:sodipodi="http://sodipodi.sourceforge.net/DTD/sodipodi-0.dtd"
   xmlns:inkscape="http://www.inkscape.org/namespaces/inkscape"
   width="210mm"
   height="297mm"
   viewBox="0 0 210 297"
   version="1.1"
   id="svg1386"
   inkscape:version="0.92.4 (5da689c313, 2019-01-14)"
   sodipodi:docname="star_icon.svg">
  <defs
     id="defs1380" />
  <sodipodi:namedview
     id="base"
     pagecolor="#ffffff"
     bordercolor="#666666"
     borderopacity="1.0"
     inkscape:pageopacity="0.0"
     inkscape:pageshadow="2"
     inkscape:zoom="0.35"
     inkscape:cx="-77.142857"
     inkscape:cy="560"
     inkscape:document-units="mm"
     inkscape:current-layer="layer1"
     showgrid="false"
     inkscape:window-width="3840"
     inkscape:window-height="2066"
     inkscape:window-x="-11"
     inkscape:window-y="-11"
     inkscape:window-maximized="1" />
  <metadata
     id="metadata1383">
    <rdf:RDF>
      <cc:Work
         rdf:about="">
        <dc:format>image/svg+xml</dc:format>
        <dc:type
           rdf:resource="http://purl.org/dc/dcmitype/StillImage" />
        <dc:title />
      </cc:Work>
    </rdf:RDF>
  </metadata>
  <g
     inkscape:label="Layer 1"
     inkscape:groupmode="layer"
     id="layer1">
    <path
       inkscape:connector-curvature="0"
       d="M 105.08476,52.111703 C 99.416457,52.239537 94.184625,55.314617 91.321816,60.27987 L 47.170835,136.88073 3.0182024,213.47659 c -6.279668,10.8992 1.5720975,24.52212 14.1351956,24.52436 h 88.303612 88.30029 c 12.56312,-0.003 20.41488,-13.62516 14.13521,-24.52436 L 163.73988,136.88073 119.59056,60.27987 c -2.77936,-4.820595 -7.81623,-7.89315 -13.36756,-8.154941 -0.38119,-0.01894 -0.76034,-0.0221 -1.13824,-0.01578 z m 0.3706,52.573607 c 2.11763,0 3.86468,0.10605 5.24113,0.31807 1.37647,0.15908 2.46175,0.42421 3.25586,0.79541 0.84705,0.31806 1.42941,0.74244 1.74704,1.27271 0.37061,0.47725 0.55589,1.06058 0.55589,1.74997 l -2.06467,72.22594 c -0.0529,0.53028 -0.21176,1.00753 -0.47648,1.43178 -0.2647,0.42421 -0.74118,0.79544 -1.42942,1.1136 -0.63529,0.26514 -1.53525,0.47728 -2.69997,0.63636 -1.11176,0.15908 -2.48822,0.23863 -4.12938,0.23863 -1.69411,0 -3.09704,-0.0799 -4.2088,-0.23863 -1.11176,-0.15908 -2.011749,-0.37122 -2.699979,-0.63636 -0.635289,-0.31807 -1.08529,-0.68939 -1.349991,-1.1136 -0.264695,-0.42425 -0.42352,-0.9015 -0.476471,-1.43178 l -2.064685,-72.22594 c 0,-0.68939 0.158844,-1.29923 0.476464,-1.82951 0.317644,-0.5303 0.873527,-0.95455 1.667635,-1.27272 0.847056,-0.37119 1.958815,-0.63636 3.335267,-0.79544 1.4294,-0.15908 3.20293,-0.23862 5.32056,-0.23862 z m 0,87.81652 c 2.17057,0 3.97056,0.21242 5.39997,0.63635 1.42938,0.37119 2.56763,1.03407 3.41469,1.98856 0.89999,0.90152 1.50878,2.12121 1.82645,3.65904 0.37057,1.48483 0.55586,3.34085 0.55586,5.56809 0,2.17419 -0.18529,4.0037 -0.55586,5.48855 -0.31767,1.4848 -0.92646,2.67798 -1.82645,3.57944 -0.84706,0.9015 -1.98531,1.53786 -3.41469,1.90909 -1.42941,0.42424 -3.2294,0.63635 -5.39997,0.63635 -2.17058,0 -3.99703,-0.21179 -5.479377,-0.63635 -1.429402,-0.37123 -2.567625,-1.00759 -3.41468,-1.90909 -0.84705,-0.90146 -1.455876,-2.09464 -1.826453,-3.57944 -0.317656,-1.48485 -0.476472,-3.31436 -0.476472,-5.48855 0,-2.22724 0.158813,-4.08326 0.476472,-5.56809 0.370577,-1.53783 0.979403,-2.75752 1.826453,-3.65904 0.847055,-0.95449 1.985278,-1.61737 3.41468,-1.98856 1.482347,-0.42421 3.308797,-0.63635 5.479377,-0.63635 z"
       id="path825"
       style="fill:#ff0000;fill-opacity:0.76847289;stroke-width:3.15375376"
       inkscape:transform-center-y="-30.238095" />
  </g>
</svg>
