<?xml version="1.0" encoding="UTF-8" standalone="no"?>
<svg
   height="256"
   viewBox="0 0 67.733331 67.733331"
   width="256"
   version="1.1"
   id="svg7"
   sodipodi:docname="new_file_icon_dark_mode.svg"
   inkscape:version="1.3-alpha (9cd57a788, 2023-05-01)"
   xmlns:inkscape="http://www.inkscape.org/namespaces/inkscape"
   xmlns:sodipodi="http://sodipodi.sourceforge.net/DTD/sodipodi-0.dtd"
   xmlns="http://www.w3.org/2000/svg"
   xmlns:svg="http://www.w3.org/2000/svg">
  <defs
     id="defs7" />
  <sodipodi:namedview
     id="namedview7"
     pagecolor="#505050"
     bordercolor="#eeeeee"
     borderopacity="1"
     inkscape:showpageshadow="0"
     inkscape:pageopacity="0"
     inkscape:pagecheckerboard="0"
     inkscape:deskcolor="#505050"
     inkscape:zoom="4.0273438"
     inkscape:cx="127.87585"
     inkscape:cy="128"
     inkscape:window-width="3840"
     inkscape:window-height="2080"
     inkscape:window-x="2869"
     inkscape:window-y="-11"
     inkscape:window-maximized="1"
     inkscape:current-layer="svg7" />
  <g
     fill="none"
     stroke="#000"
     stroke-width="3.96875"
     transform="translate(0 -229.26669)"
     id="g2"
     style="stroke:#f0f0f0;stroke-opacity:1">
    <path
       d="m14.981942 234.88802h25.76389v12.40195l12.005558-.0316v44.12033h-37.769448z"
       id="path1"
       style="stroke:#f0f0f0;stroke-opacity:1" />
    <path
       d="m41.27549 234.28174 12.005558 12.37035"
       id="path2"
       style="stroke:#f0f0f0;stroke-opacity:1" />
  </g>
  <g
     transform="translate(0 -227.67919)"
     id="g7"
     style="stroke:#f0f0f0;stroke-opacity:1;fill:#1e1e1e;fill-opacity:1">
    <path
       d="m58.040054 246.85628 5.493293 5.4933-3.637074 3.63721-21.408005 21.40787-6.004621.51132.511328-6.00462 21.407911-21.40796z"
       fill="none"
       stroke="#000"
       stroke-width="5.291667"
       id="path3"
       style="stroke:#f0f0f0;stroke-opacity:1;fill:#1e1e1e;fill-opacity:1" />
    <path
       d="m54.402886 250.4934 5.493393 5.49339"
       fill="none"
       stroke="#000"
       stroke-width="3.96875"
       id="path4"
       style="stroke:#f0f0f0;stroke-opacity:1;fill:#1e1e1e;fill-opacity:1" />
    <g
       fill="#fff"
       id="g6"
       style="stroke:#f0f0f0;stroke-opacity:1;fill:#1e1e1e;fill-opacity:1">
      <path
         d="m57.90553 252.45571-1.958808-1.95948 1.053705-1.05371 1.053703-1.0537 1.97384 1.97384 1.973839 1.97384-1.038074 1.03934c-.570942.57164-1.051875 1.03935-1.068737 1.03935-.01685 0-.912124-.88177-1.989468-1.95948z"
         id="path5"
         style="stroke:#f0f0f0;stroke-opacity:1;fill:#1e1e1e;fill-opacity:1" />
      <path
         d="m33.667709 276.55966c.01814-.10675.102532-1.05186.187513-2.10024l.154514-1.90616 9.91425-9.92084 9.91425-9.92083 1.920297 1.92094 1.920298 1.92094-9.920553 9.91464-9.920551 9.91465-1.877276.15156c-1.032502.0834-1.978181.16684-2.101507.1855l-.224232.034z"
         id="path6"
         style="stroke:#f0f0f0;stroke-opacity:1;fill:#1e1e1e;fill-opacity:1" />
    </g>
  </g>
</svg>
