<svg height="256" viewBox="0 0 67.733332 67.733335" width="256"><g fill="#aaa" transform="matrix(1.266496 0 0 1.266496 -9.02533 -12.480414)"><path d="m48.484375 72.816406 16 151.738284c43.100355 12.29494 84.876645 12.29494 127.031245 0 5.33333-52.57943 10.66667-99.15886 16-151.738284-52.31871 15.163731-106.20998 15.698736-159.031245 0zm72.908205 37.380864h13.21484v104.97461h-11.21484zm-40.046877-11.974614h13.212891l5.999996 106.925784h-9.212887zm80.095707 0h13.21289l-10 106.925784h-9.21289z" transform="scale(.26458333)"/><path d="m31.065803 11.336257-1.5875 2.80448c-5.020882 0-11.629264-.313519-16.650146-1.5875l-1.5875 4.332552c15.084006 3.604152 29.879874 3.230579 45.252017 0l-1.5875-4.332552c-4.914717 1.380146-11.629263 1.5875-16.650145 1.5875l-1.5875-2.80448z"/></g></svg>