<svg height="256" viewBox="0 0 67.733331 67.733331" width="256" ><g fill="#fff"><g transform="matrix(.70710678 .70710678 -.70710678 .70710678 195.9827 -176.144062)"><path d="m29.500187 239.7825h8.732957v20.488861h-8.732957z"/><path d="m34.931825 279.15625 4.58141 9.01738-10.099984-.54107-10.099984-.54107 5.518574-8.47631 5.518574-8.47631z" transform="matrix(.99836443 -.03529452 .05717048 .616346 -11.94257 63.83888)"/></g><g transform="matrix(-.70710678 -.70710678 .70710678 -.70710678 -128.24937 243.877402)"><path d="m29.500187 239.7825h8.732957v20.488861h-8.732957z"/><path d="m34.931825 279.15625 4.58141 9.01738-10.099984-.54107-10.099984-.54107 5.518574-8.47631 5.518574-8.47631z" transform="matrix(.99836443 -.03529452 .05717048 .616346 -11.94257 63.83888)"/></g></g></svg>